<?xml version="1.0" standalone="no"?>
<!DOCTYPE svg PUBLIC "-//W3C//DTD SVG 20010904//EN"
 "http://www.w3.org/TR/2001/REC-SVG-20010904/DTD/svg10.dtd">
<svg version="1.0" xmlns="http://www.w3.org/2000/svg"
 width="128.000000pt" height="128.000000pt" viewBox="0 0 128.000000 128.000000"
 preserveAspectRatio="xMidYMid meet">

<g transform="translate(0.000000,128.000000) scale(0.100000,-0.100000)"
fill="#000000" stroke="none">
<path d="M567 1240 c-74 -13 -139 -39 -197 -79 -63 -43 -80 -65 -62 -83 9 -9
21 -5 57 21 117 84 248 114 381 87 102 -20 104 -20 104 3 0 39 -175 71 -283
51z"/>
<path d="M890 1160 c-58 -58 29 -141 89 -85 21 20 17 66 -9 87 -29 23 -55 23
-80 -2z m50 -40 c0 -5 -5 -10 -11 -10 -5 0 -7 5 -4 10 3 6 8 10 11 10 2 0 4
-4 4 -10z"/>
<path d="M988 1046 c-108 -125 -126 -156 -89 -156 25 0 231 234 231 261 0 43
-40 14 -142 -105z"/>
<path d="M243 1043 c-21 -8 -15 -43 6 -43 11 0 23 5 27 11 8 14 -17 38 -33 32z"/>
<path d="M527 1014 c-4 -4 -7 -40 -7 -81 l0 -73 -99 0 c-133 0 -131 3 -131
-156 l0 -124 -24 0 c-19 0 -25 6 -28 28 -2 19 -9 28 -25 30 -17 2 -24 12 -29
38 -9 47 3 142 25 207 21 60 14 90 -15 71 -32 -19 -56 -111 -58 -216 l-1 -97
-65 -3 -65 -3 0 -240 0 -240 95 -3 c115 -3 140 2 140 28 0 17 7 20 48 20 37 0
97 -19 253 -80 130 -51 224 -82 259 -86 44 -4 89 3 218 35 89 23 177 47 196
55 94 39 79 183 -21 202 -19 4 -61 -1 -98 -10 -35 -9 -69 -16 -75 -16 -23 0
-8 45 34 98 89 115 120 209 114 348 -2 70 -7 97 -18 104 -27 17 -35 -8 -32
-103 4 -108 -18 -192 -70 -272 l-33 -50 -5 150 -5 150 -107 3 -107 3 -3 142
-3 142 -126 3 c-69 1 -128 -1 -132 -4z m213 -289 l0 -245 -47 19 c-27 11 -65
27 -85 35 l-38 16 0 210 0 210 85 0 85 0 0 -245z m-230 -36 c0 -111 0 -111
-22 -105 -13 3 -49 6 -80 6 l-58 0 0 105 0 105 80 0 80 0 0 -111z m450 -203
c0 -138 -3 -197 -12 -202 -6 -4 -45 -9 -86 -12 l-75 -5 8 29 c8 31 8 50 -1
238 -3 65 -3 125 0 132 4 10 27 14 86 14 l80 0 0 -194z m-772 -88 l-3 -193
-67 -3 -68 -3 0 196 0 195 70 0 70 0 -2 -192z m418 79 c147 -61 172 -84 144
-134 -22 -40 -60 -40 -163 1 -87 34 -117 37 -117 11 0 -20 17 -29 165 -85 171
-65 210 -67 398 -21 152 37 151 37 177 11 23 -23 26 -49 8 -73 -20 -26 -360
-111 -418 -103 -25 3 -136 41 -248 86 -166 65 -213 80 -258 80 l-54 0 0 140 0
140 119 0 118 0 129 -53z"/>
<path d="M1030 980 c-54 -54 12 -137 76 -95 32 21 33 77 2 99 -30 21 -54 20
-78 -4z"/>
</g>
</svg>
